<?xml version="1.0" encoding="utf-8"?>
<!-- Generator: Adobe Illustrator 24.2.3, SVG Export Plug-In . SVG Version: 6.00 Build 0)  -->
<svg version="1.1" id="shadow" xmlns="http://www.w3.org/2000/svg" xmlns:xlink="http://www.w3.org/1999/xlink" x="0px" y="0px"
	 viewBox="0 0 394.6 407" style="enable-background:new 0 0 394.6 407;" xml:space="preserve">
<style type="text/css">
	.st0{fill:#0092A2;}
	.st1{fill:#A7FFFF;}
	.st2{fill:none;stroke:#A7FFFF;stroke-width:14;stroke-linecap:round;stroke-miterlimit:10;}
</style>
<g id="tete">
	<rect class="st0" width="394.6" height="407"/>
</g>
<g id="nez">
	<g>
		<path class="st1" d="M198.2,184.7c1.1,5.2,1.9,10.5,2.8,15.7c0.8,5.2,1.5,10.5,2.1,15.7c0.3,2.6,0.9,5.2,1.3,7.9
			c0.5,2.6,0.5,5.2,0.1,7.9c-0.4,2.6-1.1,5.2-2.1,7.9c-1,2.6-2.2,5.2-4.2,7.9c-0.3,0.4-0.8,0.5-1.2,0.2c-0.1,0-0.1-0.1-0.2-0.2
			c-2-2.6-3.2-5.2-4.2-7.9c-1-2.6-1.6-5.2-2.1-7.9c-0.4-2.6-0.4-5.2,0.1-7.9c0.4-2.6,1.1-5.2,1.3-7.9c0.6-5.2,1.3-10.5,2.1-15.7
			c0.9-5.2,1.7-10.5,2.8-15.7c0.1-0.4,0.5-0.6,0.8-0.6C197.9,184.2,198.1,184.4,198.2,184.7z"/>
	</g>
</g>
<g id="eyeleft">
	<line class="st2" x1="107.4" y1="204.9" x2="74.4" y2="173.1"/>
	<line class="st2" x1="74.9" y1="204.8" x2="106.7" y2="171.9"/>
</g>
<g id="eyeRight">
	<line class="st2" x1="288.3" y1="171.5" x2="317.7" y2="206.5"/>
	<line class="st2" x1="320.5" y1="174.9" x2="285.5" y2="204.4"/>
</g>
<g id="bouche">
	<path class="st2" d="M0,0"/>
</g>
<circle class="st1" cx="197.5" cy="323.4" r="24.4"/>
</svg>
