<?xml version="1.0" encoding="utf-8"?>
<!-- Generator: Adobe Illustrator 24.0.0, SVG Export Plug-In . SVG Version: 6.00 Build 0)  -->
<svg version="1.1" xmlns="http://www.w3.org/2000/svg" xmlns:xlink="http://www.w3.org/1999/xlink" x="0px" y="0px"
	 viewBox="0 0 492 573" style="enable-background:new 0 0 492 573;" xml:space="preserve">
<style type="text/css">
	.st0{fill:#0097A7;}
	.st1{fill:#A7FFFF;}
	.st2{fill:#0097A7;stroke:#A7FFFF;stroke-width:4;stroke-miterlimit:10;}
</style>
<g id="Calque_1">
	<g>
		<rect class="st0" width="492" height="573"/>
	</g>
	<rect x="218" y="316" class="st0" width="62" height="28"/>
</g>
<g id="pied">
	<g>
		<polygon class="st1" points="222.5,473 221,555 219.5,473 		"/>
	</g>
	<g>
		<polygon class="st1" points="291,473 289.5,543.5 288,473 		"/>
	</g>
	<g id="Calque_7">
	</g>
</g>
<g id="basSapin">
	<g>
		<path class="st1" d="M124,320l-10.7,19.3l-10.8,19.2L80.9,397l-43.5,76.8l-1.4-2.4c17.8-0.2,35.5-0.1,53.2-0.2l53.2-0.1l53.2-0.1
			l53.2,0.1l53.2,0.1c17.8,0,35.5,0,53.2,0.2l53.2,0.4c17.8,0.1,35.5,0.2,53.2,0.4l-0.7,1.2l-16.2-28.7L429,416l16.9,28.3l16.8,28.3
			l0.7,1.2l-1.4,0c-17.7,0.2-35.5,0.3-53.2,0.4l-53.2,0.4c-17.7,0.2-35.5,0.1-53.2,0.2l-53.2,0.1l-53.2,0.1l-53.2-0.1l-53.2-0.1
			c-17.7-0.1-35.5,0-53.2-0.2l-2.8,0l1.4-2.4L79.1,396l22.4-38l11.2-19L124,320z"/>
	</g>
	<polygon class="st1" points="398,366 371.3,321 374.7,319 397,362 	"/>
	<path class="st2" d="M337,381"/>
</g>
<g id="milieuSapin">
	<g>
		<path class="st1" d="M161,217c-4.7,8.8-9.7,17.5-14.5,26.2c-2.4,4.4-4.9,8.7-7.3,13l-7.4,13c-5,8.7-9.9,17.3-15,25.9
			c-5,8.6-10,17.3-15.1,25.8L100,318l19.4,0l19.4,0.1c12.9,0,25.8,0.2,38.8,0.3c12.9,0.2,25.8,0.3,38.7,0.6
			c6.5,0.1,12.9,0.3,19.4,0.5l9.7,0.3l9.7,0.3l-9.7,0.3l-9.7,0.3c-6.5,0.2-12.9,0.4-19.4,0.5c-12.9,0.3-25.8,0.4-38.7,0.6
			c-12.9,0.1-25.8,0.3-38.8,0.3l-19.4,0.1l-19.4,0l-3.4,0l1.7-2.9c5.1-8.6,10.2-17.1,15.4-25.7c5.1-8.6,10.3-17.1,15.5-25.6
			l7.8-12.7c2.6-4.2,5.2-8.5,7.9-12.7C150.3,233.9,155.6,225.4,161,217z"/>
	</g>
	<g>
		<path class="st1" d="M339,217c5.3,8.3,10.5,16.8,15.7,25.2l7.7,12.7l7.6,12.7c5,8.5,10.1,17,15,25.6c4.9,8.6,9.9,17.1,14.8,25.7
			l1.7,2.9l-3.4,0c-8.1,0-16.2,0-24.2-0.2l-12.1-0.1l-12.1-0.2c-8.1-0.1-16.2-0.3-24.2-0.6c-8.1-0.2-16.2-0.5-24.2-0.9
			c8.1-0.4,16.2-0.7,24.2-0.9c8.1-0.2,16.2-0.4,24.2-0.6l12.1-0.2l12.1-0.1c8.1-0.1,16.2-0.1,24.2-0.2l-1.7,2.9
			c-5-8.6-9.8-17.2-14.7-25.8c-4.9-8.6-9.7-17.3-14.5-25.9l-7.2-13l-7.1-13C348.2,234.5,343.5,225.8,339,217z"/>
	</g>
</g>
<g id="hautSapin">
	<g>
		<path class="st1" d="M195,112l13.2-23.2l13.2-23.2l13.2-23.2L248,19.4l1-1.7l1,1.7l28.8,49.1l28.7,49.1l28.6,49.2l28.5,49.2l1.7,3
			l-3.4,0l-56.7-0.1l-56.7-0.2L136,217.9l-1.6,0l0.8-1.4l18.9-33.3c6.3-11.1,12.6-22.2,18.9-33.3c-6,11.3-12,22.5-18.1,33.7
			l-18.1,33.7l-0.8-1.4l113.5-0.8l56.7-0.2L363,215l-1.7,3l-28.5-49.3l-28.4-49.3L276.2,70L248,20.6l2,0l-13.7,22.9l-13.8,22.8
			l-13.8,22.8L195,112z"/>
	</g>
	<path class="st2" d="M161,217"/>
</g>
</svg>
