<?xml version="1.0" encoding="utf-8"?>
<!-- Generator: Adobe Illustrator 24.0.0, SVG Export Plug-In . SVG Version: 6.00 Build 0)  -->
<svg version="1.1" id="Calque_1" xmlns="http://www.w3.org/2000/svg" xmlns:xlink="http://www.w3.org/1999/xlink" x="0px" y="0px"
	 viewBox="0 0 47.6 46.4" style="enable-background:new 0 0 47.6 46.4;" xml:space="preserve">
<style type="text/css">
	.stMilieuBoule{fill:none;}
	.stTourBoule{fill:#A7FFFF;}
</style>
<circle id="milieuBoule" class="stMilieuBoule" cx="24.6" cy="22.6" r="22"/>
<g id="tourBoule">
	<path class="stTourBoule" d="M31.6,1.4c5.5,1.9,10.2,5.9,13.1,11c1.4,2.6,2.4,5.5,2.7,8.4c0.4,3,0.1,6.1-0.8,9c-1.8,5.8-6,10.9-11.5,13.8
		c-5.4,3-12.1,3.6-18.1,1.7c-6-1.8-11.3-6.1-14.3-11.8c-1.5-2.8-2.4-6-2.7-9.2c-0.2-3.2,0.2-6.5,1.3-9.5s2.8-5.8,5-8s4.9-4,7.7-5.1
		C19.9-0.6,26.1-0.5,31.6,1.4z M31.5,1.9c-2.7-0.8-5.6-1.1-8.4-0.7s-5.4,1.4-7.7,2.9C10.7,7,7.6,11.5,6.1,16.4S5,26.7,7.1,31.3
		c1.1,2.3,2.6,4.5,4.5,6.2s4.2,3.1,6.6,4c4.9,1.8,10.6,1.5,15.4-0.8s8.7-6.5,10.6-11.7c1.9-5.1,1.8-11-0.5-16.2
		c-1.1-2.6-2.8-4.9-5-6.8C36.7,4.2,34.2,2.8,31.5,1.9z"/>
</g>
</svg>
