<?xml version="1.0" encoding="utf-8"?>
<!-- Generator: Adobe Illustrator 24.0.0, SVG Export Plug-In . SVG Version: 6.00 Build 0)  -->
<svg version="1.1" xmlns="http://www.w3.org/2000/svg" xmlns:xlink="http://www.w3.org/1999/xlink" x="0px" y="0px"
	 viewBox="0 0 492 569" style="enable-background:new 0 0 492 569;" xml:space="preserve">
<style type="text/css">
	.st0{fill:#0097A7;}
	.st1{fill:#A7FFFF;}
	.st2{fill:#0097A7;stroke:#FFFFFF;stroke-width:2;stroke-miterlimit:10;}
	.st3{fill:#0097A7;stroke:#A7FFFF;stroke-width:4;stroke-miterlimit:10;}
</style>
<g id="Calque_1">
	<g>
		<rect class="st0" width="492" height="569"/>
	</g>
	<rect x="218" y="313" class="st0" width="62" height="28"/>
</g>
<g id="Calque_3">
	<g>
		<polygon class="st1" points="209.5,470 208,552 206.5,470 		"/>
	</g>
	<g>
		<polygon class="st1" points="278,470 276.5,540.5 275,470 		"/>
	</g>
</g>
<g id="Calque_2">
	<path class="st2" d="M228.8,6"/>
	<polygon class="st3" points="248.9,470 36,470 142.4,285.7 248.9,101.3 355.3,285.7 461.7,470 	"/>
	<polygon class="st3" points="249,317 99.5,317 174.3,187.6 249,58.2 323.7,187.6 398.4,317 	"/>
	<polygon class="st3" points="249.3,213.8 135.7,213.8 192.5,115.4 249.3,17 306.2,115.4 363,213.8 	"/>
	<polygon class="st0" points="305,327.2 260,344 249,320.8 294,302 	"/>
	<polygon class="st0" points="202.3,140.4 114,157 129.6,119.9 207.7,109.4 	"/>
	<polygon class="st0" points="449,420.5 382,394.5 362.5,362 422.8,362 	"/>
</g>
</svg>
