<?xml version="1.0" encoding="utf-8"?>
<!-- Generator: Adobe Illustrator 24.0.0, SVG Export Plug-In . SVG Version: 6.00 Build 0)  -->
<svg version="1.1" id="Calque_1" xmlns="http://www.w3.org/2000/svg" xmlns:xlink="http://www.w3.org/1999/xlink" x="0px" y="0px"
	 viewBox="0 0 137.1 195.9" style="enable-background:new 0 0 137.1 195.9;" xml:space="preserve">
<style type="text/css">
	.st0{fill:#A0D468;}
	.st1{fill:#3D2645;}
	.st2{fill:#8DC153;}
	.st3{fill:#C8934F;}
	.st4{fill:#B27E45;}
</style>
<g>
	<g>
		<polygon class="st0" points="47.3,37.3 68.6,1.4 109.7,70.7 27.5,70.7 42.3,45.7 		"/>
	</g>
	<g>
		<path class="st1" d="M109.7,72.1H27.5c-0.5,0-0.9-0.3-1.2-0.7c-0.2-0.4-0.2-1,0-1.4l14.8-25c0.4-0.7,1.2-0.9,1.9-0.5
			c0.6,0.4,0.9,1.2,0.5,1.9L29.9,69.3h77.4L68.6,4.1L48.4,38c-0.4,0.7-1.2,0.9-1.9,0.5c-0.6-0.4-0.9-1.2-0.5-1.9l21.3-36
			C67.6,0.3,68.1,0,68.6,0c0.5,0,0.9,0.3,1.2,0.7L110.8,70c0.3,0.4,0.3,0.9,0,1.4C110.6,71.8,110.2,72.1,109.7,72.1z"/>
	</g>
</g>
<g>
	<polygon class="st2" points="109.7,70.7 68.6,1.4 68.6,70.7 	"/>
</g>
<g>
	<polygon class="st0" points="63.1,117.9 42.4,117.9 1.4,169.6 135.8,169.6 121.4,151.6 115.2,143.8 94.7,117.9 71.3,117.9 	"/>
</g>
<g>
	<polygon class="st2" points="115.2,143.8 94.7,117.9 71.3,117.9 68.6,117.9 68.6,169.6 135.8,169.6 121.4,151.6 	"/>
</g>
<g>
	<g>
		<polygon class="st0" points="63.1,117.9 14,117.9 44.5,70.7 92.6,70.7 123.1,117.9 71.3,117.9 		"/>
	</g>
	<g>
		<path class="st1" d="M123.1,119.3H71.3c-0.8,0-1.4-0.6-1.4-1.4s0.6-1.4,1.4-1.4h49.3L91.9,72.1H45.3l-28.7,44.5h46.5
			c0.8,0,1.4,0.6,1.4,1.4s-0.6,1.4-1.4,1.4H14c-0.5,0-1-0.3-1.2-0.7c-0.2-0.4-0.2-1,0.1-1.4l30.5-47.3c0.3-0.4,0.7-0.6,1.2-0.6h48.1
			c0.5,0,0.9,0.2,1.2,0.6l30.5,47.3c0.3,0.4,0.3,1,0.1,1.4C124.1,119,123.6,119.3,123.1,119.3z"/>
	</g>
</g>
<g>
	<path class="st1" d="M123.2,155.1c-0.4,0-0.8-0.2-1.1-0.5L102,129.3H79.3c-0.8,0-1.4-0.6-1.4-1.4s0.6-1.4,1.4-1.4h23.4
		c0.4,0,0.8,0.2,1.1,0.5l20.5,25.8c0.5,0.6,0.4,1.5-0.2,1.9C123.8,155,123.5,155.1,123.2,155.1z"/>
</g>
<g>
	<path class="st1" d="M135.8,171H1.4c-0.5,0-1-0.3-1.2-0.8c-0.2-0.5-0.2-1,0.2-1.4l41.1-51.7c0.3-0.3,0.7-0.5,1.1-0.5h20.7
		c0.8,0,1.4,0.6,1.4,1.4s-0.6,1.4-1.4,1.4h-20L4.2,168.2h128.7l-12.6-15.8c-0.5-0.6-0.4-1.5,0.2-1.9c0.6-0.5,1.5-0.4,1.9,0.2
		l14.3,18c0.3,0.4,0.4,1,0.2,1.4C136.8,170.7,136.3,171,135.8,171z"/>
</g>
<g>
	<g>
		<rect x="59.9" y="169.6" class="st3" width="17.3" height="24.9"/>
	</g>
	<g>
		<path class="st1" d="M77.2,195.9H59.9c-0.8,0-1.4-0.6-1.4-1.4v-24.9c0-0.8,0.6-1.4,1.4-1.4h17.3c0.8,0,1.4,0.6,1.4,1.4v24.9
			C78.6,195.3,78,195.9,77.2,195.9z M61.3,193.1h14.6V171H61.3V193.1z"/>
	</g>
</g>
<g>
	<rect x="68.6" y="169.6" class="st4" width="8.7" height="24.9"/>
</g>
<g>
	<polygon class="st2" points="68.6,70.7 68.6,117.9 71.3,117.9 123.1,117.9 92.6,70.7 	"/>
</g>
<g>
	<path class="st1" d="M109.7,72.1H27.5c-0.5,0-0.9-0.3-1.2-0.7c-0.2-0.4-0.2-1,0-1.4l20.8-35c0.4-0.7,1.2-0.9,1.9-0.5
		c0.6,0.4,0.9,1.2,0.5,1.9L29.9,69.3h77.4L68.6,4.1L48.4,38c-0.4,0.7-1.2,0.9-1.9,0.5c-0.6-0.4-0.9-1.2-0.5-1.9l21.3-36
		C67.6,0.3,68.1,0,68.6,0c0.5,0,0.9,0.3,1.2,0.7L110.8,70c0.3,0.4,0.3,0.9,0,1.4C110.6,71.8,110.2,72.1,109.7,72.1z"/>
</g>
<g>
	<path class="st1" d="M123.1,119.3H71.3c-0.8,0-1.4-0.6-1.4-1.4s0.6-1.4,1.4-1.4h49.3L91.9,72.1H45.3l-28.7,44.5h46.5
		c0.8,0,1.4,0.6,1.4,1.4s-0.6,1.4-1.4,1.4H14c-0.5,0-1-0.3-1.2-0.7c-0.2-0.4-0.2-1,0.1-1.4l30.5-47.3c0.3-0.4,0.7-0.6,1.2-0.6h48.1
		c0.5,0,0.9,0.2,1.2,0.6l30.5,47.3c0.3,0.4,0.3,1,0.1,1.4C124.1,119,123.6,119.3,123.1,119.3z"/>
</g>
<g>
	<path class="st1" d="M77.2,195.9H59.9c-0.8,0-1.4-0.6-1.4-1.4v-24.9c0-0.8,0.6-1.4,1.4-1.4h17.3c0.8,0,1.4,0.6,1.4,1.4v24.9
		C78.6,195.3,78,195.9,77.2,195.9z M61.3,193.1h14.6V171H61.3V193.1z"/>
</g>
</svg>
